<?xml version="1.0"?>
<svg xmlns="http://www.w3.org/2000/svg" xmlns:xlink="http://www.w3.org/1999/xlink" version="1.1" id="Capa_1" x="0px" y="0px" viewBox="0 0 480 480" style="enable-background:new 0 0 480 480;" xml:space="preserve" width="18px" height="18px"><g><g>
	<g>
		<path d="M256,128c-8.832,0-16,7.168-16,16c0,8.832,7.168,16,16,16c35.296,0,64,28.704,64,64c0,8.832,7.168,16,16,16    c8.832,0,16-7.168,16-16C352,171.072,308.928,128,256,128z" data-original="#000000" class="active-path" data-old_color="#000000" fill="#FFFFFF"/>
	</g>
</g><g>
	<g>
		<path d="M256,64c-8.832,0-16,7.168-16,16c0,8.832,7.168,16,16,16c70.592,0,128,57.408,128,128c0,8.832,7.168,16,16,16    c8.832,0,16-7.168,16-16C416,135.776,344.224,64,256,64z" data-original="#000000" class="active-path" data-old_color="#000000" fill="#FFFFFF"/>
	</g>
</g><g>
	<g>
		<path d="M256,0c-8.832,0-16,7.168-16,16c0,8.832,7.168,16,16,16c105.888,0,192,86.112,192,192c0,8.832,7.168,16,16,16    c8.832,0,16-7.168,16-16C480,100.48,379.488,0,256,0z" data-original="#000000" class="active-path" data-old_color="#000000" fill="#FFFFFF"/>
	</g>
</g><g>
	<g>
		<path d="M432,352c-46.464,0-90.72-10.112-131.52-30.048c-3.84-1.92-8.256-2.144-12.256-0.736c-4.032,1.408-7.328,4.352-9.184,8.16    l-25.152,52.064C188.8,345.12,134.912,291.264,98.624,226.176l52.032-25.216c3.84-1.856,6.752-5.152,8.16-9.184    c1.376-4,1.12-8.416-0.768-12.256C138.112,138.72,128,94.464,128,48c0-8.832-7.168-16-16-16H16C7.168,32,0,39.168,0,48    c0,238.208,193.792,432,432,432c8.832,0,16-7.168,16-16v-96C448,359.168,440.832,352,432,352z" data-original="#000000" class="active-path" data-old_color="#000000" fill="#FFFFFF"/>
	</g>
</g></g> </svg>
