<?xml version="1.0" encoding="UTF-8"?>
<svg width="257.28" height="300" version="1.1" viewBox="0 0 68.073 79.375" xmlns="http://www.w3.org/2000/svg" xmlns:cc="http://creativecommons.org/ns#" xmlns:dc="http://purl.org/dc/elements/1.1/" xmlns:rdf="http://www.w3.org/1999/02/22-rdf-syntax-ns#">
 <g>
  <path d="m1.39 0.967c-0.27803-0.11585-0.58549 0.09693-0.58549 0.39668 0.0183 2.3099 0 11.837 0 16.296 0 0.34333 0.27843 0.6408 0.64079 0.6408h12.352c0.36237 0 0.6408-0.30111 0.6408-0.65987-0.0184-2.2389-0.0369-4.497-0.0553-6.736 0-0.32014-0.2339-0.59798-0.55497-0.6408-1.6504-0.22005-3.3012-0.47626-4.9338-0.75141-0.28493-0.05277-0.53583 0.08709-0.66369 0.29751-0.12785 0.21042-0.13499 0.49897 0.0438 0.73043 0.5873 0.78912 1.0655 1.3955 1.7813 2.258h-2e-3c0.0613 0.07662 0.1087 0.18955 0.1087 0.29179v1.4494c0 0.28276-0.2098 0.49236-0.49013 0.47678-1.3014-0.07332-2.5865-0.16418-3.8906-0.21932-0.24708-0.01545-0.4272-0.21187-0.4272-0.45962-0.0184-2.3847-0.0179-4.7528-0.0362-7.1384 0-0.31135 0.27208-0.52241 0.56642-0.46153 2.5526 0.60602 5.1224 1.1391 7.6934 1.5982h2e-3c0.40308 0.06364 0.74574-0.2586 0.76667-0.65605 0.0367-0.55247 0.019-0.77773 0.019-1.3255 0-0.09815 5e-3 -0.24217-2e-3 -0.38715s-0.0241-0.29038-0.082-0.40622c-0.0624-0.12471-0.15845-0.22256-0.29178-0.267-0.0989-0.03911-0.22168-0.07312-0.36236-0.12587l-2e-3 -2e-3h-2e-3c-2.3321-0.80797-10.239-3.4492-12.234-4.1995z"/>
  <path d="m17.69 6.135c-0.23544-0.04708-0.47679 0.12776-0.47679 0.38524-0.0183 1.6347-0.0908 8.2007-0.0725 11.359 0 0.23246 0.19156 0.40431 0.40431 0.40431h12.021c0.21954 0 0.40241-0.18477 0.40241-0.40431v-1.7794c0-0.21954-0.18287-0.40431-0.40241-0.40431-2.55-0.01835-5.0818-0.07345-7.6323-0.14685h-4e-3c-0.13458 0-0.21932-0.10173-0.21932-0.21932v-1.2492c0-0.13458 0.0977-0.21932 0.23839-0.21932 2.4403 0.12842 6.4768 0.3307 7.6342 0.2937 0.21955 0 0.38524-0.19157 0.38524-0.40431v-1.7984c0-0.33186-0.20403-0.53209-0.4024-0.53209-0.86983-0.03696-5.7036-0.18476-7.6629-0.31277-0.12194-0.01493-0.21168-0.10276-0.21168-0.21932v-1.2301c0-0.13458 0.10583-0.23299 0.21168-0.22123h2e-3c2.5517 0.22029 5.0677 0.40402 7.6209 0.49586h2e-3c0.22635 0 0.42338-0.16994 0.42338-0.4024v-1.7984c0-0.21275-0.16902-0.38134-0.3757-0.40431h-4e-3c-4.6947-0.33009-7.005-0.58701-11.881-1.192z"/>
  <path d="m45.44 6.484c-1.43 0.22-2.2542 0.31093-3.7037 0.45771h-4e-3c-0.17206 0.02459-0.31658 0.16811-0.31658 0.349l-0.019 5.1016c0 0.14886-0.164 0.21424-0.27272 0.12969-2.1111-1.6889-4.2586-3.3583-6.387-5.0463l-2e-3 -2e-3 -4e-3 -0.0038c-0.0668-0.04454-0.14006-0.06865-0.21551-0.06865h-2e-3l-2.2199 0.01717c-0.1927 0-0.349 0.15631-0.349 0.349v10.186c0 0.19269 0.1563 0.3471 0.349 0.3471h3.8181c0.19268 0 0.349-0.1544 0.349-0.3471 0.0184-1.6157 0.0172-3.2482 0.0172-4.8632 0-0.07444 0.0417-0.12935 0.0973-0.15638s0.11855-0.02599 0.17355 0.02289l2e-3 2e-3c2.1265 1.7232 4.2541 3.4642 6.3431 5.2599 0.0691 0.06917 0.15531 0.082 0.23076 0.082h2.0921c0.19218 0 0.34625-0.15323 0.3471-0.34519v-2e-3c0.0184-0.66164 0.019-1.3043 0.019-1.9643 0.0184-3.0648 0.0369-6.1116 0.0553-9.1581 0-0.10637-0.0432-0.2034-0.11633-0.267-0.0731-0.0636-0.17325-0.09179-0.27844-0.0801l0.01 0.08964z"/>
  <path d="m66.56 0.984c-4.3809 1.668-10.884 3.7549-12.274 4.2739-0.2058 0.0686-0.33757 0.26991-0.33757 0.49013-0.0185 1.5098 0.0184 8.5179 0 12.003 0 0.29034 0.24176 0.53209 0.5321 0.53209h12.259c0.29034 0 0.5321-0.24175 0.5321-0.53209v-9.6177c0-0.33238-0.31246-0.57678-0.64081-0.51111h-4e-3c-1.7974 0.42182-3.5944 0.8079-5.4105 1.1748-0.20531 0.04322-0.35258 0.18826-0.40813 0.36045-0.0556 0.17219-0.021 0.37432 0.12015 0.52637 0.71478 0.76976 1.2091 1.3363 2.0349 2.2905 0.0627 0.07907 0.0877 0.14574 0.0877 0.23458v2.0177c0 0.19622-0.12332 0.334-0.31849 0.349-1.3756 0.11005-2.7517 0.20259-4.1289 0.31277-0.20552 0.01468-0.37952-0.14451-0.37952-0.34901l0.0382-6.7474c0.0162-0.16642 0.1149-0.29435 0.28035-0.33947 2.8083-0.66084 5.5799-1.3952 8.3513-2.2027h2e-3c0.2206-0.06618 0.3757-0.27031 0.37571-0.51111v-3.2478c0-0.36956-0.36124-0.63859-0.71136-0.5073z"/>
  <path d="m50.18 14.797-2.6986 0.2937c-0.23292 0.0233-0.41193 0.22525-0.41193 0.45771v2.2752c0 0.25192 0.20579 0.45962 0.45771 0.45962h2.7064c0.24681-0.02244 0.45008-0.22104 0.45008-0.45962v-2.5689c0-0.2712-0.23174-0.4802-0.50157-0.45771z"/>
  <path d="m66.3 22.321h-28.666c-0.27527 0-0.51385 0.22022-0.51385 0.51386v8.9374c0 0.27528 0.22023 0.51386 0.51385 0.51386h18.737c0.27528 0 0.51386 0.22022 0.51386 0.51386v12.424c0 0.12846-0.0551 0.25693-0.14682 0.36704l-8.7906 8.8273c-0.33033 0.33034-0.8809 0.09176-0.8809-0.36704v-8.4052c0-0.12846 0.0551-0.25693 0.14681-0.36704l5.1753-5.2303c0.31199-0.33034 0.0918-0.86254-0.36703-0.86254h-14.388c-0.27527 0-0.51385 0.23857-0.51385 0.51386v38.227c0 0.4588 0.55056 0.67902 0.88089 0.36704l28.684-28.537c0.0918-0.09176 0.14681-0.22022 0.14681-0.36704v-26.555c-0.0183-0.27528-0.23857-0.51386-0.5322-0.51386"/>
 </g>
 <path d="m1.83 22.321h28.684c0.27528 0 0.51385 0.22022 0.51385 0.51386v8.9374c0 0.27528-0.22022 0.51386-0.51385 0.51386h-18.737c-0.27528 0-0.51386 0.22022-0.51386 0.51386v12.424c0 0.12846 0.0551 0.25693 0.14682 0.36704l8.7906 8.8273c0.33033 0.33034 0.88089 0.09176 0.88089-0.36704v-8.4052c0-0.12846-0.0551-0.25693-0.14682-0.36704l-5.1752-5.2303c-0.31199-0.33034-0.0918-0.86254 0.36704-0.86254h14.388c0.27528 0 0.51385 0.23857 0.51385 0.51386v38.227c0 0.4588-0.55055 0.67902-0.88089 0.36704l-28.666-28.556c-0.0918-0.09176-0.14682-0.22022-0.14682-0.36704v-26.537c-0.0184-0.27528 0.22023-0.51386 0.49551-0.51386" fill="#aa8b30"/>
</svg>
